# xmcd
#
# Track frame offsets:
#	150
#	13012
#	23694
#	34829
#	48799
#	64775
#	80103
#	120446
#	133441
#	144374
#	156254
#	170064
#	181693
#	192069
#
# Disc length: 2802 seconds
#
# Revision: 1
# Processed by: cddbd v1.5.2PL0 Copyright (c) Steve Scherf et al.
# Submitted via: EasyCDDAExtractor 10.5.1.1
#
DISCID=b80af00e
DTITLE=Fats Domino - Fats Domino - The Blues Biography
DYEAR=2006
DGENRE=R&B
TTITLE0=I'm Walkin
TTITLE1=Ain't That A Shame
TTITLE2=The Fat Man
TTITLE3=Walkin' To New Oreans
TTITLE4=I'm In Love Again
TTITLE5=Your Cheatin' Heart
TTITLE6=Jambalaya (On The Bayou)
TTITLE7=I'm In The Mood For Love
TTITLE8=I'm Gonna Be A Wheel Someday
TTITLE9=I Wanna Walk You Home
TTITLE10=Poor Me
TTITLE11=Blueberry Hill
TTITLE12=Goin' To The Mardi Gras
TTITLE13=When The Saints Go Marchin' In
EXTD=
EXTT0=
EXTT1=
EXTT2=
EXTT3=
EXTT4=
EXTT5=
EXTT6=
EXTT7=
EXTT8=
EXTT9=
EXTT10=
EXTT11=
EXTT12=
EXTT13=
PLAYORDER=
